name C:\Users\r0593348\3dpredictsim\Results\batch_windlass\Pog_s1_tmt_bCst_d05_k1500_WL30_ig24_act_TTC.mot
datacolumns 128
datarows 4
range 1.74673686 1.78167159
endheader
time	pelvis_tilt	pelvis_list	pelvis_rotation	pelvis_tx	pelvis_ty	pelvis_tz	hip_flexion_l	hip_adduction_l	hip_rotation_l	hip_flexion_r	hip_adduction_r	hip_rotation_r	knee_angle_l	knee_angle_r	ankle_angle_l	ankle_angle_r	subtalar_angle_l	subtalar_angle_r	tmt_angle_l	tmt_angle_r	mtp_angle_l	mtp_angle_r	lumbar_extension	lumbar_bending	lumbar_rotation	arm_flex_l	arm_add_l	arm_rot_l	arm_flex_r	arm_add_r	arm_rot_r	elbow_flex_l	elbow_flex_r	pro_sup_l	pro_sup_r	glut_med1_l/activation	glut_med2_l/activation	glut_med3_l/activation	glut_min1_l/activation	glut_min2_l/activation	glut_min3_l/activation	semimem_l/activation	semiten_l/activation	bifemlh_l/activation	bifemsh_l/activation	sar_l/activation	add_long_l/activation	add_brev_l/activation	add_mag1_l/activation	add_mag2_l/activation	add_mag3_l/activation	tfl_l/activation	pect_l/activation	grac_l/activation	glut_max1_l/activation	glut_max2_l/activation	glut_max3_l/activation	iliacus_l/activation	psoas_l/activation	quad_fem_l/activation	gem_l/activation	peri_l/activation	rect_fem_l/activation	vas_med_l/activation	vas_int_l/activation	vas_lat_l/activation	med_gas_l/activation	lat_gas_l/activation	soleus_l/activation	tib_post_l/activation	flex_dig_l/activation	flex_hal_l/activation	tib_ant_l/activation	per_brev_l/activation	per_long_l/activation	per_tert_l/activation	ext_dig_l/activation	ext_hal_l/activation	ercspn_l/activation	intobl_l/activation	extobl_l/activation	glut_med1_r/activation	glut_med2_r/activation	glut_med3_r/activation	glut_min1_r/activation	glut_min2_r/activation	glut_min3_r/activation	semimem_r/activation	semiten_r/activation	bifemlh_r/activation	bifemsh_r/activation	sar_r/activation	add_long_r/activation	add_brev_r/activation	add_mag1_r/activation	add_mag2_r/activation	add_mag3_r/activation	tfl_r/activation	pect_r/activation	grac_r/activation	glut_max1_r/activation	glut_max2_r/activation	glut_max3_r/activation	iliacus_r/activation	psoas_r/activation	quad_fem_r/activation	gem_r/activation	peri_r/activation	rect_fem_r/activation	vas_med_r/activation	vas_int_r/activation	vas_lat_r/activation	med_gas_r/activation	lat_gas_r/activation	soleus_r/activation	tib_post_r/activation	flex_dig_r/activation	flex_hal_r/activation	tib_ant_r/activation	per_brev_r/activation	per_long_r/activation	per_tert_r/activation	ext_dig_r/activation	ext_hal_r/activation	ercspn_r/activation	intobl_r/activation	extobl_r/activation	
          1.74673686	         -2.93017623	          0.62218610	         -7.50265250	          2.18342107	          0.85968077	          0.00191440	         32.99697980	         -0.57920544	         -3.55076740	        -15.24400569	         -1.76992220	          7.32082158	        -21.11275772	        -16.24148627	          4.18165670	         -5.62127227	          7.85410709	         17.20493704	         -0.22236383	        -11.24828796	          0.65329189	         34.82348906	          0.24996586	          1.78667488	          2.28327005	        -11.20179819	        -13.58757978	         13.56282276	          3.75748253	        -13.49009962	         16.99326354	         16.08808086	         38.40001998	         86.51662706	         86.51662706	          0.05000183	          0.05038672	          0.07734586	          0.05087502	          0.05005274	          0.05001773	          0.07129239	          0.07129101	          0.12541863	          0.05299225	          0.06046716	          0.06856806	          0.11420472	          0.11809297	          0.11453670	          0.10542140	          0.05000251	          0.05001020	          0.07128304	          0.05109037	          0.05215358	          0.10874363	          0.07688994	          0.07849982	          0.17216909	          0.05970396	          0.08443786	          0.05000100	          0.06424133	          0.07386300	          0.06054715	          0.07129162	          0.07129163	          0.07129156	          0.06390901	          0.05004405	          0.07129060	          0.48693542	          0.20009280	          0.15253566	          0.10133117	          0.52351745	          0.05970395	          0.05000011	          0.12911957	          0.12137797	          0.17125480	          0.07334392	          0.05010605	          0.20958370	          0.14238856	          0.10164416	          0.05000359	          0.05000048	          0.05000045	          0.05000149	          0.10164731	          0.08158650	          0.05000073	          0.05000083	          0.05000203	          0.05000117	          0.18487042	          0.05001331	          0.05000190	          0.05000474	          0.05000276	          0.05000127	          0.33518153	          0.44088856	          0.05000047	          0.05000300	          0.05010129	          0.19480698	          0.10462725	          0.10944823	          0.10243172	          0.14424167	          0.20826746	          0.05000004	          0.13933332	          0.13709845	          0.15747727	          0.19775411	          0.42938803	          0.34978100	          0.41601590	          0.34651368	          0.05000065	          0.05000005	          0.05000012	          0.05000047	
          1.75838177	         -2.92507265	          0.55932659	         -7.66345079	          2.20190720	          0.85863747	          0.00163672	         32.50074467	         -0.37992220	         -3.40331941	        -15.57004888	         -1.98584105	          7.14553419	        -20.67815942	        -17.14499101	          3.71951492	         -8.17354512	          7.53941943	         17.65928053	         -0.29232156	        -11.62337433	          0.85420295	         35.60310528	          0.47247053	          1.61080461	          2.37593140	        -12.52312254	        -13.57519788	         13.47301714	          3.40166697	        -13.53492692	         17.27851611	         16.13506503	         39.43291592	         86.51662706	         86.51662706	          0.05000234	          0.05000056	          0.09634141	          0.05000233	          0.05000182	          0.05000121	          0.05970485	          0.05970449	          0.10503366	          0.05002730	          0.05063988	          0.05971897	          0.12528011	          0.15878137	          0.14983552	          0.12442821	          0.05000220	          0.05970366	          0.05970491	          0.05000060	          0.05000043	          0.13026276	          0.06439261	          0.06574089	          0.15729740	          0.05000650	          0.09243118	          0.05000053	          0.15282319	          0.15367744	          0.13140460	          0.05970415	          0.05970417	          0.05970409	          0.05352155	          0.05970409	          0.05970426	          0.57658982	          0.22161943	          0.14493357	          0.27879392	          0.58581794	          0.05000024	          0.05000008	          0.10813295	          0.10164964	          0.14341982	          0.06142308	          0.05000049	          0.17551887	          0.11924539	          0.08512375	          0.05000440	          0.05000055	          0.05000043	          0.05000045	          0.08512622	          0.16751019	          0.11940680	          0.05260979	          0.05001143	          0.05000316	          0.15482233	          0.05495197	          0.05000328	          0.05002433	          0.05001773	          0.05003088	          0.28070237	          0.36922821	          0.06899305	          0.05000246	          0.05000049	          0.16314375	          0.10164794	          0.10164498	          0.09153853	          0.12079714	          0.17441641	          0.05000001	          0.11668658	          0.11481504	          0.13188151	          0.36828819	          0.42881453	          0.32853932	          0.67124064	          0.50678117	          0.23337239	          0.05000003	          0.05385387	          0.06877370	
          1.77002668	         -2.91320411	          0.50504622	         -7.79140004	          2.22057820	          0.85708097	          0.00135703	         31.91491386	         -0.15188688	         -3.20263205	        -15.74685390	         -2.17424341	          6.96748850	        -20.83029612	        -18.42862967	          3.25804812	        -10.36680533	          7.18862660	         18.05687535	         -0.36793925	        -11.55479311	          1.09238945	         35.05109742	          0.70056680	          1.41157219	          2.45773055	        -13.81757062	        -13.57406789	         13.45489831	          2.98374710	        -13.60095208	         17.49752056	         16.13268237	         40.47468844	         86.51662706	         86.51662706	          0.05000034	          0.06725867	          0.15996144	          0.05000035	          0.05000045	          0.05004818	          0.05000067	          0.05000070	          0.08796190	          0.05000017	          0.05000062	          0.05001260	          0.10491768	          0.24228911	          0.22460108	          0.14081775	          0.05000308	          0.05000188	          0.05000120	          0.05970444	          0.05971023	          0.15291634	          0.05392652	          0.05505569	          0.27347027	          0.05004078	          0.08797464	          0.07129190	          0.28800536	          0.27334919	          0.23574466	          0.05000005	          0.05000008	          0.05000000	          0.05000003	          0.05000074	          0.05000031	          0.69604057	          0.18559960	          0.12137731	          0.59399014	          0.63082749	          0.30564613	          0.05000002	          0.09055741	          0.08512787	          0.12010897	          0.05143985	          0.07129151	          0.14699082	          0.09986382	          0.07129109	          0.05001242	          0.05000142	          0.05000668	          0.05000166	          0.07129046	          0.17477491	          0.23532388	          0.31847245	          0.12417124	          0.13073981	          0.12965813	          0.06238492	          0.05283605	          0.05000226	          0.05000152	          0.05000106	          0.23507803	          0.30921520	          0.07124729	          0.07129384	          0.07129151	          0.13662695	          0.08512756	          0.08512759	          0.08512771	          0.10116320	          0.14606740	          0.05000005	          0.09772077	          0.09615353	          0.11044601	          0.53003729	          0.43043876	          0.31077444	          0.62311012	          0.57964171	          0.19544097	          0.06158971	          0.06676315	          0.06756738	
          1.78167159	         -2.89569074	          0.46503484	         -7.88301195	          2.23929918	          0.85507177	          0.00109135	         31.17285204	          0.07414013	         -2.93237589	        -15.76086481	         -2.33905172	          6.80146831	        -21.57845484	        -20.12544311	          3.03828318	        -12.01261228	          6.79653908	         18.40765335	         -0.54475793	        -10.91501228	          1.30394956	         32.71527347	          0.92532204	          1.18596891	          2.52319890	        -15.05340417	        -13.58980934	         13.54818709	          2.52148170	        -13.67827085	         17.64314783	         16.05728709	         41.52059924	         86.51662706	         86.51662706	          0.23460538	          0.35626248	          0.52709220	          0.22055616	          0.06752771	          0.46521355	          0.06598054	          0.05000028	          0.08476262	          0.05000018	          0.05000238	          0.05970522	          0.08788339	          0.20290844	          0.18809554	          0.15013338	          0.05000038	          0.05971021	          0.07033695	          0.05000042	          0.05000520	          0.17497150	          0.05970394	          0.05000257	          0.22902148	          0.14182902	          0.34167189	          0.05970438	          0.31081616	          0.30095818	          0.26422889	          0.05945974	          0.05970266	          0.05970408	          0.09724904	          0.05000059	          0.05000439	          0.66189479	          0.15543293	          0.10164909	          0.49744524	          0.60000259	          0.26300934	          0.05209501	          0.07583855	          0.07129150	          0.24855715	          0.05970431	          0.05970418	          0.12309965	          0.08363250	          0.05970417	          0.05000234	          0.05000048	          0.05000176	          0.05000015	          0.05970346	          0.14636775	          0.25229647	          0.26670940	          0.10403128	          0.12574634	          0.10858404	          0.05224739	          0.05001655	          0.05970745	          0.05973583	          0.10165078	          0.19686931	          0.25895652	          0.05970443	          0.05970633	          0.05970410	          0.11442009	          0.07129146	          0.07129146	          0.07129147	          0.08472050	          0.12232614	          0.05000003	          0.08183760	          0.08052521	          0.09249458	          0.45678918	          0.36224624	          0.26026257	          0.58023146	          0.76335522	          0.45453868	          0.09946132	          0.05591174	          0.05658556	
